<?xml version="1.0" encoding="utf-8"?>
<!-- Generator: Adobe Illustrator 23.0.1, SVG Export Plug-In . SVG Version: 6.00 Build 0)  -->
<svg version="1.1" id="Layer_1" xmlns="http://www.w3.org/2000/svg" xmlns:xlink="http://www.w3.org/1999/xlink" x="0px" y="0px"
	 viewBox="0 0 260 75" width="260" height="75" style="enable-background:new 0 0 260 75;" xml:space="preserve">
<style type="text/css">
	.st0{fill-rule:evenodd;clip-rule:evenodd;fill:url(#SVGID_1_);}
</style>
<linearGradient id="SVGID_1_" gradientUnits="userSpaceOnUse" x1="38.8008" y1="40.4539" x2="257.9716" y2="25.9974">
	<stop  offset="0" style="stop-color:#480442"/>
	<stop  offset="1" style="stop-color:#E02675"/>
</linearGradient>
<path class="st0" d="M260,11.1v48.5c-10.4,3.1-21,5.8-31.7,8c-23.5,4.8-47.9,7.3-72.7,7.3c-3.6,0-5.7,0.1-7.9,0.1c-2,0-4,0-7.2-0.2
	l21-21c-38.2,0-79.2-5.3-113.7-16.3l14.7-14.7C41.2,17.4,20,9.3,0.5,0h84.7l-4.7,4.7c10.8,2.3,21.3,4.1,32,5.2s21.6,1.7,33.1,1.7
	c19.8,0,33.3-0.6,52-4.1L173,32.2C201.8,29.2,232.3,21.7,260,11.1z"/>
</svg>
