<svg width="118" height="23" viewBox="0 0 118 23" fill="none" xmlns="http://www.w3.org/2000/svg">
<path d="M0.0690918 15.6148V5.15501H3.44356C5.64105 5.15501 7.28942 6.43961 7.28942 8.65044C7.28942 10.8613 5.66696 12.1968 3.44356 12.1968H2.13603V15.6148H0.0690918ZM2.13603 10.2435H3.33892C4.38534 10.2435 5.14375 9.6785 5.14375 8.65044C5.14375 7.62237 4.38534 7.08288 3.33892 7.08288H2.13603V10.2444V10.2435ZM31.4349 8.72681H33.3703V15.6148H31.4349V8.72681ZM32.4285 7.80155C31.7488 7.80155 31.2256 7.28752 31.2256 6.64522C31.2256 6.00292 31.7488 5.46343 32.4285 5.46343C33.1082 5.46343 33.6314 5.97747 33.6314 6.64522C33.6314 7.31297 33.1082 7.80155 32.4285 7.80155ZM28.5308 11.5535C28.5308 10.8084 28.1123 10.3453 27.4585 10.3453C26.7001 10.3453 26.3074 10.8084 26.3074 11.579V15.6139H24.372V11.5535C24.372 10.8084 23.9535 10.3453 23.2997 10.3453C22.5413 10.3453 22.1486 10.8084 22.1486 11.579V15.6139H20.2133V8.72681H21.9134L22.1227 9.62661C22.1227 9.62661 22.5413 8.54665 23.8488 8.54665C24.6601 8.54665 25.3397 8.88053 25.8111 9.57472L25.8639 9.65207L25.9158 9.57472C26.5964 8.624 27.4336 8.54665 27.9558 8.54665C29.4467 8.54665 30.4672 9.65207 30.4672 11.2196V15.6148H28.5308V11.5545V11.5535ZM42.0556 15.6139V8.72681H43.7299L43.9392 9.72942C44.2531 9.08712 44.881 8.65044 45.7181 8.65044C45.9015 8.65044 46.0838 8.67589 46.2672 8.72779V10.5528C46.032 10.501 45.8227 10.4755 45.5875 10.4755C44.6458 10.4755 43.992 11.0414 43.992 12.1459V15.6158H42.0566L42.0556 15.6139ZM7.94318 15.6139V8.72681H9.61746L9.82675 9.72942C10.1407 9.08712 10.7685 8.65044 11.6057 8.65044C11.789 8.65044 11.9714 8.67589 12.1548 8.72779V10.5528C11.9196 10.501 11.7103 10.4755 11.4751 10.4755C10.5333 10.4755 9.87957 11.0414 9.87957 12.1459V15.6158H7.94418L7.94318 15.6139ZM37.8968 15.794C35.7252 15.794 34.1297 14.3293 34.1297 12.1958C34.1297 10.2679 35.5688 8.54665 37.844 8.54665C39.5442 8.54665 41.2972 9.80579 41.2972 12.1449C41.2972 12.325 41.2972 12.5561 41.2454 12.8136H36.1179C36.3013 13.5842 37.0069 14.0982 37.8709 14.0982C38.6552 14.0982 39.2572 13.8152 39.7545 13.3012L40.9314 14.483C40.173 15.3309 39.0738 15.794 37.8968 15.794ZM37.7922 10.217C36.9809 10.217 36.3013 10.6801 36.1438 11.4252H39.3877C39.2313 10.7056 38.5765 10.217 37.7922 10.217ZM16.0535 15.794C13.8819 15.794 12.2863 14.3293 12.2863 12.1958C12.2863 10.2679 13.7254 8.54665 16.0006 8.54665C17.7008 8.54665 19.4538 9.80579 19.4538 12.1449C19.4538 12.325 19.4538 12.5561 19.402 12.8136H14.2745C14.4579 13.5842 15.1645 14.0982 16.0276 14.0982C16.8129 14.0982 17.4138 13.8152 17.9111 13.3012L19.0881 14.483C18.3297 15.3309 17.2314 15.794 16.0535 15.794ZM15.9488 10.217C15.1376 10.217 14.4579 10.6801 14.3005 11.4252H17.5444C17.3869 10.7056 16.7331 10.217 15.9488 10.217ZM106.724 15.793C105.18 15.793 103.296 14.9706 103.296 12.4004V8.72485H105.232V12.2712C105.232 13.453 105.781 13.967 106.723 13.967C107.586 13.967 108.214 13.3756 108.214 12.2712V8.72485H110.149V12.4004C110.149 14.9706 108.239 15.793 106.722 15.793M90.0576 15.793C91.0253 15.793 91.8106 15.3564 92.2291 14.7395L92.4384 15.6129H94.1386V8.72583H92.4384L92.2291 9.62563C91.8106 8.98334 91.104 8.62302 90.0576 8.62302C88.1999 8.62302 86.5785 10.2425 86.5785 12.1694C86.5785 14.0962 88.1999 15.793 90.0576 15.793ZM90.4502 10.3443C91.4707 10.3443 92.2551 11.1149 92.2551 12.1694C92.2551 13.2239 91.4707 13.968 90.4502 13.968C89.4297 13.968 88.6195 13.171 88.6195 12.1694C88.6195 11.1158 89.4038 10.3443 90.4502 10.3443ZM78.3386 15.6129V13.685H73.839V5.15501H71.7721V15.6139H78.3386V15.6129ZM82.5243 15.793C83.7013 15.793 84.8005 15.3309 85.5589 14.482L84.382 13.3002C83.8847 13.8143 83.2837 14.0972 82.4984 14.0972C81.6353 14.0972 80.9288 13.5832 80.7464 12.8126H85.8739C85.9257 12.5561 85.9257 12.3241 85.9257 12.1449C85.9257 9.80579 84.1727 8.54665 82.4725 8.54665C80.1963 8.54665 78.7582 10.2689 78.7582 12.1958C78.7582 14.3293 80.3537 15.794 82.5253 15.794M82.4207 10.217C83.205 10.217 83.8588 10.7056 84.0162 11.4252H80.7723C80.9288 10.6801 81.6094 10.217 82.4207 10.217ZM114.598 15.794C115.775 15.794 116.874 15.3319 117.632 14.483L116.455 13.3012C115.958 13.8152 115.357 14.0982 114.572 14.0982C113.709 14.0982 113.002 13.5842 112.819 12.8136H117.946C117.998 12.5571 117.998 12.325 117.998 12.1459C117.998 9.80677 116.245 8.54763 114.545 8.54763C112.269 8.54763 110.83 10.2699 110.83 12.1968C110.83 14.3303 112.425 15.795 114.597 15.795M114.492 10.218C115.277 10.218 115.931 10.7066 116.088 11.4262H112.844C113 10.6811 113.681 10.218 114.491 10.218M98.717 10.3463C99.7375 10.3463 100.548 11.1168 100.548 12.1713C100.548 13.2258 99.7365 13.9699 98.717 13.9699C97.6975 13.9699 96.8862 13.1729 96.8862 12.1713C96.8862 11.1178 97.6975 10.3463 98.717 10.3463ZM100.443 9.60115C100.025 9.00977 99.292 8.62498 98.4808 8.62498C96.4926 8.62498 94.8711 10.1671 94.8711 12.1713C94.8711 14.1756 96.4408 15.795 98.429 15.795C99.1874 15.795 99.868 15.5639 100.443 14.9726V15.4611C100.443 16.4892 99.8152 17.1834 98.3761 17.1834C97.4603 17.1834 96.7547 16.7467 96.2315 16.2581L95.1591 17.7229C95.9963 18.5199 97.0427 19.0075 98.5077 19.0075C99.58 19.0075 100.47 18.6481 101.124 18.1596C101.987 17.4918 102.354 16.592 102.354 15.3064V8.72583H100.653L100.444 9.5992M53.3012 1.81135C54.2778 2.25097 54.9047 2.80613 55.0183 2.89033C54.9665 2.64164 54.7741 1.45006 54.6635 0.707897C55.2326 1.0966 56.5541 1.99738 56.9876 2.29014C57.165 1.75359 57.7779 0.00293733 57.7779 0.00293733C57.7779 0.00293733 58.8861 1.76631 59.0754 2.05319C59.3067 1.81527 60.6321 0.367166 60.975 0C61.0328 0.833223 61.1115 2.02578 61.1294 2.20496C61.1972 2.11586 61.7045 1.41775 62.5546 0.773497C62.1858 1.48629 62.0104 2.47127 61.9317 3.26239C61.0955 3.0323 60.2136 2.90894 59.3027 2.90894C57.5556 2.90894 55.9152 3.36129 54.4971 4.15241C54.239 3.38968 53.8354 2.43896 53.3002 1.81135H53.3012ZM63.4834 11.7356L63.4814 10.5088C63.4814 10.5088 62.9243 10.3325 62.3273 9.87824C61.1314 10.0564 59.6814 11.2382 59.6814 11.2382C59.6814 11.2382 60.1717 12.1508 60.7059 13.1348C61.6477 13.262 63.0339 12.0959 63.4814 11.7346L63.4834 11.7356ZM64.6873 13.9611C64.6873 13.9611 64.5916 13.454 64.182 12.9791L63.2492 13.0016C63.2492 13.0016 61.9905 14.0649 61.2221 14.0894C61.2221 14.0894 61.6457 14.8629 61.8579 15.2663C62.2815 15.1762 63.025 14.8472 63.3239 14.5065C63.3239 14.5065 63.5223 15.1341 63.4844 15.8733C63.9049 15.6325 64.485 14.9843 64.6883 13.9602L64.6873 13.9611ZM65.071 9.92818C64.6006 10.3179 64.2009 10.5333 64.2009 10.5333L64.2049 11.766C64.5428 12.1351 64.8746 12.4406 65.1238 12.9977C65.5952 12.1645 65.5055 10.9367 65.071 9.92818ZM65.1736 8.82962L65.2474 8.26956C65.2723 7.96114 65.1915 7.45005 64.752 6.91937C64.2069 6.3182 62.8356 5.35084 62.1818 5.11879C62.1818 5.11879 62.128 5.73856 61.9028 6.03719C60.6002 5.11291 59.9604 4.88184 59.9604 4.88184C58.5293 5.08256 57.6105 5.62499 57.1112 6.0509L57.5467 6.41513C56.6846 6.67557 56.1245 7.40403 56.1245 7.40403C56.1305 7.41676 56.8949 7.52348 56.8949 7.52348C56.8949 7.52348 56.8172 8.40566 57.9413 8.95886C58.903 9.43177 60.2883 8.84528 61.5918 9.35833C60.7338 8.38608 60.1438 7.95135 60.1438 7.95135C60.1438 7.95135 59.803 7.88184 59.5628 7.88282C59.2638 7.88477 58.8183 7.94352 58.328 7.75553C58.0948 7.66643 57.8217 7.50782 57.6085 7.37564C57.6085 7.37564 58.2104 6.76859 59.0884 6.63445C59.0884 6.63445 59.8807 6.85377 60.5095 7.31004C60.9271 6.91056 61.3626 6.92329 61.3626 6.92329C61.3626 6.92329 60.9311 7.31983 61.0617 7.79959C61.6895 8.34985 62.3702 9.13608 62.3702 9.13608C63.0638 8.76206 64.5707 8.84822 64.8806 9.2007C64.488 8.70135 63.9229 8.28425 63.4854 7.92688C63.4326 7.73987 62.9552 7.08582 62.8745 7.02609C62.8745 7.02609 63.3289 7.16415 63.7335 7.52055C63.8511 7.35801 64.0684 7.19156 64.3654 7.11813C64.6713 7.36976 64.7241 7.75553 64.7162 7.82015C64.5776 7.98073 64.4441 8.04731 64.4441 8.04731L65.1776 8.82766L65.2513 8.26761M65.9091 9.28392C67.0283 11.3156 67.3003 13.7496 66.523 16.1749C66.4762 16.123 65.8842 15.4729 65.639 15.2066C65.4836 17.578 64.773 19.4197 62.7001 20.9755C62.7001 20.9755 62.5027 20.2304 62.3871 19.7643C58.9688 22.2258 56.0299 21.0998 55.2037 20.6955C55.8435 17.813 55.3482 16.1583 54.9196 14.8962C54.0098 16.3648 53.0779 17.5055 52.1481 18.2761C51.5123 16.8172 51.4635 14.106 51.9777 12.5042C51.8073 12.5493 50.8027 12.8606 50.2456 13.0271C50.4699 11.5564 51.4585 9.58745 52.5029 8.60638C52.3205 8.57505 51.7854 8.50063 51.3608 8.43112C51.6219 7.90925 52.3793 6.93993 53.5404 6.03034C53.5065 6.67166 53.7487 7.43634 54.4861 7.80351C54.0187 6.9977 53.9619 6.00292 54.4493 5.48693C54.9386 4.96801 55.7598 5.1462 56.284 5.5496C56.1873 5.26957 55.976 4.94549 55.6641 4.73204C57.1112 4.07016 58.8672 3.68733 60.8583 3.98889C61.1653 4.25228 61.4932 4.62238 61.6746 4.85149C61.6825 4.687 61.6586 4.37173 61.6058 4.13184C62.42 4.32179 63.2701 4.62727 64.1511 5.07473C62.5825 3.53753 59.4033 3.07538 56.7504 3.82147C56.1285 3.99673 55.5385 4.2278 54.9834 4.50097C54.3984 4.50782 54.0217 4.85932 53.8065 5.17068C52.1093 6.27708 50.8645 7.73301 50.2646 8.95298C50.3981 8.98138 50.7997 9.03033 51.1715 9.093C50.4131 10.1563 49.4214 12.1694 49.4862 13.9758C49.6586 13.9249 50.5855 13.6459 51.0399 13.5009C50.7967 15.0949 50.8675 17.7728 51.9199 19.3041C53.2454 18.3818 54.0137 17.4125 54.6526 16.5382C54.817 17.3254 54.9774 18.7245 54.4124 21.043C54.8708 21.3906 58.1935 23.105 61.9516 20.8648L62.2655 22.0819L62.6722 21.8224C64.9593 20.3626 65.8373 18.3906 66.1443 16.7849C66.2499 16.8994 66.6655 17.3469 66.815 17.4957C67.389 15.9575 68.5361 12.2585 65.9061 9.2849L65.9091 9.28392Z" fill="white"/>
</svg>
